# xmcd CD database file
#
# Track frame offsets:
#	150
#	4574
#	20725
#	32412
#	53555
#	65386
#	82814
#	97603
#	120139
#	132937
#	148106
#	158139
#	179980
#	194140
#	209030
#	222381
#	232743
#	249124
#	263883
#	285021
#	312048
#
# Disc length: 4345 seconds
#
# Revision: 0
# Processed by: cddbd v1.4b42PL0 Copyright (c) Steve Scherf et al.
# Submitted via: CDex 1.40Beta5
#
DISCID=1410f715
DTITLE=John Denver - In Memory Of John Denver, His Fabulous Hits Forever
DYEAR=1900
DGENRE=Country
TTITLE0=The Music Is You
TTITLE1=Farewell Andromeda
TTITLE2=Mother Nature
TTITLE3=Summer
TTITLE4=Toledo
TTITLE5=Matthew
TTITLE6=Rocky Mountain Suite
TTITLE7=Sweet Surrender
TTITLE8=Grandma's Feather Band
TTITLE9=Annie's Song
TTITLE10=The Eagle And The Hawk
TTITLE11=My Sweet Lady
TTITLE12=Annie's Other Song
TTITLE13=Thymes And Reasons
TTITLE14=Forest Lawn
TTITLE15=Blue Grass
TTITLE16=Thank God I'm A Country Boy
TTITLE17=Take Me Home, Country Roads
TTITLE18=Poems, Prayers And Promises
TTITLE19=Rocky Mountain High
TTITLE20=This Old Guitar
EXTD=ID3G:   2
EXTT0=
EXTT1=
EXTT2=
EXTT3=
EXTT4=
EXTT5=
EXTT6=
EXTT7=
EXTT8=
EXTT9=
EXTT10=
EXTT11=
EXTT12=
EXTT13=
EXTT14=
EXTT15=
EXTT16=
EXTT17=
EXTT18=
EXTT19=
EXTT20=
PLAYORDER=
